<svg xmlns="http://www.w3.org/2000/svg" width="137" height="42.058" viewBox="0 0 137 42.058">
  <g id="gobazzar-logo-23" transform="translate(-141 -32.999)">
    <g id="Group_2" data-name="Group 2" transform="translate(141 32.999)" style="isolation: isolate">
      <g id="Group_5" data-name="Group 5" transform="translate(0)">
        <path id="Path_9" data-name="Path 9" d="M217.782,127.341a6.934,6.934,0,0,0-5.505,2.337,8.419,8.419,0,0,0-2.039,5.738,8.549,8.549,0,0,0,2.062,5.9,7.272,7.272,0,0,0,5.754,2.336,7.019,7.019,0,0,0,5.5-2.336,8.442,8.442,0,0,0,2.084-5.834,8.1,8.1,0,0,0-2.186-5.881A7.549,7.549,0,0,0,217.782,127.341Zm.1,11.794q-1.881,0-1.88-3.688a5.364,5.364,0,0,1,.543-2.686,1.628,1.628,0,0,1,1.439-.922,1.54,1.54,0,0,1,1.4.938,5.824,5.824,0,0,1,.487,2.638Q219.878,139.135,217.884,139.135Z" transform="translate(-187.591 -120.649)" fill="#ff9800"/>
        <path id="Path_10" data-name="Path 10" d="M275.64,119.763a4.871,4.871,0,0,0,2.262-1.589,4.587,4.587,0,0,0,.908-2.988,5.967,5.967,0,0,0-.957-3.37,4.6,4.6,0,0,0-2.635-1.892,19.4,19.4,0,0,0-4.81-.461H259.842v5.293h1.5V126.28h-1.5v5.293h9.782a24.245,24.245,0,0,0,5.631-.493,5.178,5.178,0,0,0,3.07-2.019,6.313,6.313,0,0,0,1.119-3.783,5.917,5.917,0,0,0-.995-3.354A5.744,5.744,0,0,0,275.64,119.763Zm-7.607-5.452h1.243q1.839,0,2.25.62a2.477,2.477,0,0,1,.41,1.4,2.263,2.263,0,0,1-.447,1.462,2.588,2.588,0,0,1-1.976.556h-1.479Zm3.58,11.937a3.51,3.51,0,0,1-2.076.477h-1.5V122.37h1.479a3.247,3.247,0,0,1,2.163.524,2.226,2.226,0,0,1,.559,1.669A2,2,0,0,1,271.613,126.248Z" transform="translate(-220.346 -109.018)" fill="#fff"/>
        <path id="Path_11" data-name="Path 11" d="M335.012,133.906a11.893,11.893,0,0,0-.3-3.116,4.847,4.847,0,0,0-1.017-1.812,4.417,4.417,0,0,0-2.252-1.224,10.386,10.386,0,0,0-1.663-.31,19.3,19.3,0,0,0-2.109-.1,10.033,10.033,0,0,0-4.824.922,5.347,5.347,0,0,0-2.4,3.195l4.5.636a2.314,2.314,0,0,1,2.126-1.478,2.2,2.2,0,0,1,1.326.413,1.925,1.925,0,0,1,.709,1.033,9.153,9.153,0,0,1,.148,2v.461a6.494,6.494,0,0,0-3.418-.779,5.331,5.331,0,0,0-3.818,1.383,4.645,4.645,0,0,0-1.475,3.545,5.1,5.1,0,0,0,1.2,3.386,4.328,4.328,0,0,0,3.532,1.43,5.728,5.728,0,0,0,3.978-1.335V143.2h7.167v-4.848h-1.417Zm-5.75,5.356a2.136,2.136,0,0,1-1.738.811,1.347,1.347,0,0,1-1.074-.6,2.75,2.75,0,0,1-.011-3.02,1.442,1.442,0,0,1,1.2-.572,2.669,2.669,0,0,1,1.623.572Z" transform="translate(-260.366 -120.649)" fill="#fff"/>
        <path id="Path_12" data-name="Path 12" d="M475.787,133.906a11.9,11.9,0,0,0-.3-3.116,4.845,4.845,0,0,0-1.017-1.812,4.416,4.416,0,0,0-2.252-1.224,10.386,10.386,0,0,0-1.663-.31,19.3,19.3,0,0,0-2.109-.1,10.034,10.034,0,0,0-4.824.922,5.348,5.348,0,0,0-2.4,3.195l4.5.636a2.314,2.314,0,0,1,2.126-1.478,2.2,2.2,0,0,1,1.326.413,1.924,1.924,0,0,1,.709,1.033,9.159,9.159,0,0,1,.148,2v.461a6.493,6.493,0,0,0-3.417-.779,5.331,5.331,0,0,0-3.818,1.383,4.645,4.645,0,0,0-1.475,3.545,5.1,5.1,0,0,0,1.2,3.386,4.328,4.328,0,0,0,3.532,1.43,5.727,5.727,0,0,0,3.978-1.335V143.2H477.2v-4.848h-1.418Zm-5.75,5.356a2.136,2.136,0,0,1-1.737.811,1.347,1.347,0,0,1-1.074-.6,2.75,2.75,0,0,1-.011-3.02,1.442,1.442,0,0,1,1.2-.572,2.668,2.668,0,0,1,1.623.572Z" transform="translate(-353.322 -120.649)" fill="#fff"/>
        <path id="Path_13" data-name="Path 13" d="M370.951,134.035h2.4v-1.8h3.856l-6.349,7.725v4.069h13.63v-5.547h-2.435v1.828h-3.9l6.454-7.9v-3.8H370.951Z" transform="translate(-293.651 -121.478)" fill="#fff"/>
        <path id="Path_14" data-name="Path 14" d="M417.736,134.035h2.4v-1.8h3.856l-6.349,7.725v4.069h13.63v-5.547h-2.435v1.828h-3.9l6.454-7.9v-3.8H417.736Z" transform="translate(-324.544 -121.478)" fill="#fff"/>
        <path id="Path_15" data-name="Path 15" d="M520.42,129.449a7.046,7.046,0,0,0-1.177,2.5v-3.862h-6.749v4.848h1.48v5.722h-1.48V143.5h8.767v-4.848h-1.648a6.646,6.646,0,0,1,.336-2.257,2.613,2.613,0,0,1,1.189-1.335,5.219,5.219,0,0,1,2.567-.493c.187,0,.344.006.471.016V127.8a6.212,6.212,0,0,0-2.208.3A3.838,3.838,0,0,0,520.42,129.449Z" transform="translate(-387.176 -120.945)" fill="#fff"/>
        <path id="Path_16" data-name="Path 16" d="M161.587,118.934h-5.4v4.2h1.987q0,2.988-2.631,2.988A3.01,3.01,0,0,1,152.9,124.8q-.9-1.3-.9-4.943,0-3.656.854-5.023a2.983,2.983,0,0,1,2.714-1.367,3.762,3.762,0,0,1,2.3.731,5.135,5.135,0,0,1,1.6,2.153v1.463h4.673v-1.454h.018v-7.725h-4.687v.014h0v1.524a7.749,7.749,0,0,0-5.635-1.983,9.589,9.589,0,0,0-7.276,3.163,11.619,11.619,0,0,0-2.994,8.329,12.78,12.78,0,0,0,1.483,6.167,8.607,8.607,0,0,0,4.17,4.006,14.09,14.09,0,0,0,5.974,1.24,10.772,10.772,0,0,0,4.142-.795,7.8,7.8,0,0,0,2.249-1.416v1.5h3.305V118.933h-3.305Z" transform="translate(-143.569 -108.189)" fill="#ff9800"/>
      </g>
    </g>
    <path id="Path_3267" data-name="Path 3267" d="M5.448-7.254a.465.465,0,0,1-.114.135.253.253,0,0,1-.156.045.415.415,0,0,1-.237-.1A3.778,3.778,0,0,0,4.6-7.4a2.775,2.775,0,0,0-.5-.225,2.143,2.143,0,0,0-.7-.1,2.085,2.085,0,0,0-.69.105,1.467,1.467,0,0,0-.5.285,1.17,1.17,0,0,0-.3.423,1.343,1.343,0,0,0-.1.525.97.97,0,0,0,.177.6,1.525,1.525,0,0,0,.468.4,3.585,3.585,0,0,0,.66.291l.756.255q.387.132.756.3a2.659,2.659,0,0,1,.66.417,1.9,1.9,0,0,1,.468.618,2.057,2.057,0,0,1,.177.9A2.9,2.9,0,0,1,5.73-1.551a2.441,2.441,0,0,1-.561.861,2.624,2.624,0,0,1-.906.576A3.332,3.332,0,0,1,3.042.1a3.728,3.728,0,0,1-1.521-.3A3.568,3.568,0,0,1,.348-1.026l.336-.552A.442.442,0,0,1,.8-1.689a.274.274,0,0,1,.153-.045.477.477,0,0,1,.288.135,4.8,4.8,0,0,0,.4.3,3.094,3.094,0,0,0,.588.3,2.321,2.321,0,0,0,.843.135,2.217,2.217,0,0,0,.738-.114,1.567,1.567,0,0,0,.549-.321,1.391,1.391,0,0,0,.345-.5,1.654,1.654,0,0,0,.12-.642,1.077,1.077,0,0,0-.177-.639A1.467,1.467,0,0,0,4.188-3.5a3.25,3.25,0,0,0-.657-.285l-.756-.24a7.623,7.623,0,0,1-.756-.285,2.457,2.457,0,0,1-.657-.42A1.93,1.93,0,0,1,.9-5.373,2.3,2.3,0,0,1,.72-6.33,2.277,2.277,0,0,1,.9-7.212a2.273,2.273,0,0,1,.513-.756A2.486,2.486,0,0,1,2.241-8.5a3.044,3.044,0,0,1,1.137-.2,3.639,3.639,0,0,1,1.314.228,3.026,3.026,0,0,1,1.038.66Zm4.194,1.08a2.713,2.713,0,0,1,1.008.183,2.263,2.263,0,0,1,.8.528,2.407,2.407,0,0,1,.525.852,3.292,3.292,0,0,1,.189,1.155.7.7,0,0,1-.054.336.224.224,0,0,1-.2.084H7.86a3.356,3.356,0,0,0,.156,1,2.049,2.049,0,0,0,.4.711,1.587,1.587,0,0,0,.6.426,2.061,2.061,0,0,0,.78.141,2.288,2.288,0,0,0,.693-.093,3.3,3.3,0,0,0,.5-.2,3.821,3.821,0,0,0,.351-.2.465.465,0,0,1,.243-.093.235.235,0,0,1,.2.1l.3.39a2.029,2.029,0,0,1-.474.417,2.951,2.951,0,0,1-.591.291,3.754,3.754,0,0,1-.651.171A3.976,3.976,0,0,1,9.7.084,3.091,3.091,0,0,1,8.541-.129a2.548,2.548,0,0,1-.918-.624,2.863,2.863,0,0,1-.6-1.017A4.135,4.135,0,0,1,6.8-3.162,3.542,3.542,0,0,1,7-4.35a2.8,2.8,0,0,1,.561-.957,2.583,2.583,0,0,1,.894-.636A2.935,2.935,0,0,1,9.642-6.174Zm.024.786a1.64,1.64,0,0,0-1.218.447A2.1,2.1,0,0,0,7.9-3.7H11.2a2.163,2.163,0,0,0-.1-.681,1.517,1.517,0,0,0-.3-.534,1.343,1.343,0,0,0-.483-.348A1.629,1.629,0,0,0,9.666-5.388ZM17.988,0h-.474a.566.566,0,0,1-.252-.048.265.265,0,0,1-.126-.2l-.12-.564q-.24.216-.468.387a2.678,2.678,0,0,1-.48.288,2.487,2.487,0,0,1-.537.177A3.08,3.08,0,0,1,14.9.1a2.154,2.154,0,0,1-.663-.1A1.51,1.51,0,0,1,13.7-.3a1.419,1.419,0,0,1-.363-.5,1.762,1.762,0,0,1-.135-.719,1.345,1.345,0,0,1,.2-.7,1.742,1.742,0,0,1,.639-.593,4.154,4.154,0,0,1,1.155-.424A7.86,7.86,0,0,1,16.938-3.4v-.477a1.654,1.654,0,0,0-.3-1.078,1.1,1.1,0,0,0-.9-.365,1.9,1.9,0,0,0-.657.1A2.487,2.487,0,0,0,14.619-5q-.2.123-.336.222a.485.485,0,0,1-.279.1.32.32,0,0,1-.189-.057.434.434,0,0,1-.129-.141l-.192-.342a3.471,3.471,0,0,1,1.086-.726,3.353,3.353,0,0,1,1.29-.24,2.3,2.3,0,0,1,.906.168,1.858,1.858,0,0,1,.666.468,1.982,1.982,0,0,1,.408.726,3.024,3.024,0,0,1,.138.936ZM15.216-.654a2.18,2.18,0,0,0,.516-.057,2.037,2.037,0,0,0,.441-.162,2.337,2.337,0,0,0,.4-.255,3.431,3.431,0,0,0,.369-.342V-2.724a7.161,7.161,0,0,0-1.254.094,3.5,3.5,0,0,0-.84.244,1.17,1.17,0,0,0-.471.356.769.769,0,0,0-.147.459,1.017,1.017,0,0,0,.078.416.789.789,0,0,0,.21.287.827.827,0,0,0,.312.163A1.419,1.419,0,0,0,15.216-.654ZM19.608,0V-6.078h.612a.338.338,0,0,1,.24.066.4.4,0,0,1,.09.228l.072.948a2.78,2.78,0,0,1,.771-.993,1.7,1.7,0,0,1,1.077-.357,1.694,1.694,0,0,1,.456.057,1.589,1.589,0,0,1,.378.159l-.138.8a.18.18,0,0,1-.186.15.933.933,0,0,1-.258-.057,1.627,1.627,0,0,0-.486-.057,1.377,1.377,0,0,0-.933.324,2.432,2.432,0,0,0-.627.942V0ZM28.59-5a.477.477,0,0,1-.1.1.227.227,0,0,1-.138.036.343.343,0,0,1-.195-.075,2.842,2.842,0,0,0-.267-.165,2.235,2.235,0,0,0-.393-.165,1.855,1.855,0,0,0-.567-.075,1.845,1.845,0,0,0-.786.159,1.524,1.524,0,0,0-.573.459A2.077,2.077,0,0,0,25.227-4a3.6,3.6,0,0,0-.117.954,3.485,3.485,0,0,0,.126.981,2.126,2.126,0,0,0,.354.72,1.51,1.51,0,0,0,.555.444,1.714,1.714,0,0,0,.735.153,1.879,1.879,0,0,0,.642-.093,1.956,1.956,0,0,0,.42-.207,3.078,3.078,0,0,0,.276-.207.333.333,0,0,1,.216-.093.226.226,0,0,1,.2.1l.3.39a2.309,2.309,0,0,1-.99.711,3.51,3.51,0,0,1-1.254.225,2.655,2.655,0,0,1-1.059-.21,2.415,2.415,0,0,1-.849-.609,2.89,2.89,0,0,1-.567-.981,3.944,3.944,0,0,1-.207-1.326A4,4,0,0,1,24.2-4.3a2.841,2.841,0,0,1,.552-.993,2.5,2.5,0,0,1,.9-.651,3.023,3.023,0,0,1,1.224-.234A2.887,2.887,0,0,1,28-5.967a2.7,2.7,0,0,1,.87.585Zm1.458,5V-8.838h1.068v3.576a3.28,3.28,0,0,1,.864-.663,2.314,2.314,0,0,1,1.092-.249,2.195,2.195,0,0,1,.879.165,1.7,1.7,0,0,1,.636.468,2.067,2.067,0,0,1,.387.729,3.172,3.172,0,0,1,.132.942V0H34.038V-3.87a1.636,1.636,0,0,0-.315-1.071,1.178,1.178,0,0,0-.963-.381,1.8,1.8,0,0,0-.885.228,2.915,2.915,0,0,0-.759.618V0ZM52.212-1.776a.241.241,0,0,1,.174.078l.456.5a3.678,3.678,0,0,1-1.281.954A4.368,4.368,0,0,1,49.746.1,4.273,4.273,0,0,1,48.06-.225a3.7,3.7,0,0,1-1.29-.9,4.068,4.068,0,0,1-.828-1.389A5.189,5.189,0,0,1,45.648-4.3a4.877,4.877,0,0,1,.315-1.782,4.072,4.072,0,0,1,.885-1.392,3.96,3.96,0,0,1,1.365-.9,4.646,4.646,0,0,1,1.755-.321A4.139,4.139,0,0,1,51.6-8.4a4.132,4.132,0,0,1,1.221.8l-.378.534a.412.412,0,0,1-.1.1.264.264,0,0,1-.156.039.3.3,0,0,1-.165-.057q-.087-.057-.207-.141t-.282-.18a2.471,2.471,0,0,0-.384-.18,3.173,3.173,0,0,0-.516-.141,3.592,3.592,0,0,0-.678-.057,3.273,3.273,0,0,0-1.263.237,2.828,2.828,0,0,0-.987.675,3.071,3.071,0,0,0-.645,1.068,4.073,4.073,0,0,0-.231,1.41,4.148,4.148,0,0,0,.231,1.434A3.166,3.166,0,0,0,47.7-1.8a2.656,2.656,0,0,0,.945.663,3.021,3.021,0,0,0,1.176.228,4.775,4.775,0,0,0,.69-.045,2.834,2.834,0,0,0,.567-.141,2.4,2.4,0,0,0,.486-.243,3.8,3.8,0,0,0,.453-.351A.3.3,0,0,1,52.212-1.776Zm4.452-4.4a3.122,3.122,0,0,1,1.2.222,2.537,2.537,0,0,1,.912.63,2.789,2.789,0,0,1,.576.987,3.925,3.925,0,0,1,.2,1.293,3.917,3.917,0,0,1-.2,1.3,2.793,2.793,0,0,1-.576.984,2.5,2.5,0,0,1-.912.627,3.16,3.16,0,0,1-1.2.219,3.16,3.16,0,0,1-1.2-.219,2.533,2.533,0,0,1-.915-.627,2.805,2.805,0,0,1-.582-.984,3.865,3.865,0,0,1-.2-1.3,3.872,3.872,0,0,1,.2-1.293,2.8,2.8,0,0,1,.582-.987,2.566,2.566,0,0,1,.915-.63A3.122,3.122,0,0,1,56.664-6.174Zm0,5.424a1.56,1.56,0,0,0,1.344-.6,2.792,2.792,0,0,0,.444-1.683,2.818,2.818,0,0,0-.444-1.692,1.557,1.557,0,0,0-1.344-.606,1.865,1.865,0,0,0-.792.156,1.482,1.482,0,0,0-.561.45,2,2,0,0,0-.336.723,3.875,3.875,0,0,0-.111.969,3.84,3.84,0,0,0,.111.966,1.969,1.969,0,0,0,.336.717,1.494,1.494,0,0,0,.561.447A1.865,1.865,0,0,0,56.664-.75ZM60.876,0V-6.078h.636a.272.272,0,0,1,.288.222l.078.624a3.118,3.118,0,0,1,.753-.678,1.773,1.773,0,0,1,.969-.264,1.439,1.439,0,0,1,1,.342,1.924,1.924,0,0,1,.549.924,1.9,1.9,0,0,1,.333-.57,1.934,1.934,0,0,1,.465-.4A1.969,1.969,0,0,1,66.5-6.1a2.452,2.452,0,0,1,.591-.072,2.248,2.248,0,0,1,.855.153,1.693,1.693,0,0,1,.636.447,1.991,1.991,0,0,1,.4.723,3.2,3.2,0,0,1,.138.981V0H68.046V-3.87a1.638,1.638,0,0,0-.312-1.083,1.12,1.12,0,0,0-.906-.369,1.359,1.359,0,0,0-.5.093,1.207,1.207,0,0,0-.417.273,1.28,1.28,0,0,0-.285.453,1.757,1.757,0,0,0-.105.633V0H64.452V-3.87a1.7,1.7,0,0,0-.294-1.092,1.043,1.043,0,0,0-.858-.36,1.356,1.356,0,0,0-.735.213,2.406,2.406,0,0,0-.621.579V0Zm9.852,2.058V-6.078h.636a.272.272,0,0,1,.288.222l.09.72a3.245,3.245,0,0,1,.891-.762,2.276,2.276,0,0,1,1.155-.288,2.194,2.194,0,0,1,.948.2,1.955,1.955,0,0,1,.726.594,2.849,2.849,0,0,1,.462.975,5,5,0,0,1,.162,1.338,4.194,4.194,0,0,1-.18,1.251,3.047,3.047,0,0,1-.516,1,2.41,2.41,0,0,1-.825.666,2.44,2.44,0,0,1-1.1.243A2.266,2.266,0,0,1,72.5-.1,2.17,2.17,0,0,1,71.8-.63V2.058Zm2.706-7.38a1.72,1.72,0,0,0-.915.24A2.638,2.638,0,0,0,71.8-4.4v2.94a1.717,1.717,0,0,0,.645.558,1.847,1.847,0,0,0,.783.162,1.532,1.532,0,0,0,1.3-.606,2.83,2.83,0,0,0,.456-1.728,4.312,4.312,0,0,0-.1-1.02,2,2,0,0,0-.3-.7,1.179,1.179,0,0,0-.486-.4A1.617,1.617,0,0,0,73.434-5.322ZM81.816,0h-.474a.566.566,0,0,1-.252-.048.265.265,0,0,1-.126-.2l-.12-.564q-.24.216-.468.387a2.678,2.678,0,0,1-.48.288,2.487,2.487,0,0,1-.537.177,3.08,3.08,0,0,1-.633.06,2.154,2.154,0,0,1-.663-.1,1.51,1.51,0,0,1-.537-.3,1.419,1.419,0,0,1-.363-.5,1.762,1.762,0,0,1-.135-.719,1.345,1.345,0,0,1,.2-.7,1.742,1.742,0,0,1,.639-.593,4.154,4.154,0,0,1,1.155-.424A7.86,7.86,0,0,1,80.766-3.4v-.477a1.654,1.654,0,0,0-.3-1.078,1.1,1.1,0,0,0-.9-.365,1.9,1.9,0,0,0-.657.1A2.487,2.487,0,0,0,78.447-5q-.195.123-.336.222a.485.485,0,0,1-.279.1.32.32,0,0,1-.189-.057.434.434,0,0,1-.129-.141l-.192-.342a3.471,3.471,0,0,1,1.086-.726,3.353,3.353,0,0,1,1.29-.24,2.3,2.3,0,0,1,.906.168,1.858,1.858,0,0,1,.666.468,1.982,1.982,0,0,1,.408.726,3.024,3.024,0,0,1,.138.936ZM79.044-.654a2.18,2.18,0,0,0,.516-.057A2.037,2.037,0,0,0,80-.873a2.337,2.337,0,0,0,.4-.255,3.431,3.431,0,0,0,.369-.342V-2.724a7.161,7.161,0,0,0-1.254.094,3.5,3.5,0,0,0-.84.244,1.171,1.171,0,0,0-.471.356.769.769,0,0,0-.147.459,1.017,1.017,0,0,0,.078.416.789.789,0,0,0,.21.287.827.827,0,0,0,.312.163A1.419,1.419,0,0,0,79.044-.654ZM83.436,0V-6.078h.612a.338.338,0,0,1,.24.066.4.4,0,0,1,.09.228l.072.948a2.78,2.78,0,0,1,.771-.993A1.7,1.7,0,0,1,86.3-6.186a1.694,1.694,0,0,1,.456.057,1.589,1.589,0,0,1,.378.159l-.138.8a.18.18,0,0,1-.186.15.933.933,0,0,1-.258-.057,1.627,1.627,0,0,0-.486-.057,1.377,1.377,0,0,0-.933.324,2.432,2.432,0,0,0-.627.942V0Zm7.242-6.174a2.713,2.713,0,0,1,1.008.183,2.263,2.263,0,0,1,.8.528,2.407,2.407,0,0,1,.525.852A3.292,3.292,0,0,1,93.2-3.456a.7.7,0,0,1-.054.336.224.224,0,0,1-.2.084H88.9a3.356,3.356,0,0,0,.156,1,2.049,2.049,0,0,0,.4.711,1.587,1.587,0,0,0,.6.426,2.06,2.06,0,0,0,.78.141,2.288,2.288,0,0,0,.693-.093,3.3,3.3,0,0,0,.5-.2,3.822,3.822,0,0,0,.351-.2.465.465,0,0,1,.243-.093.235.235,0,0,1,.2.1l.3.39a2.029,2.029,0,0,1-.474.417,2.951,2.951,0,0,1-.591.291A3.754,3.754,0,0,1,91.4.027a3.976,3.976,0,0,1-.666.057,3.09,3.09,0,0,1-1.161-.213,2.548,2.548,0,0,1-.918-.624,2.863,2.863,0,0,1-.6-1.017,4.135,4.135,0,0,1-.216-1.392,3.542,3.542,0,0,1,.195-1.188,2.8,2.8,0,0,1,.561-.957,2.583,2.583,0,0,1,.894-.636A2.935,2.935,0,0,1,90.678-6.174Zm.024.786a1.64,1.64,0,0,0-1.218.447A2.1,2.1,0,0,0,88.932-3.7h3.306a2.163,2.163,0,0,0-.1-.681,1.518,1.518,0,0,0-.3-.534,1.343,1.343,0,0,0-.483-.348A1.629,1.629,0,0,0,90.7-5.388ZM108.4-7.254a.465.465,0,0,1-.114.135.253.253,0,0,1-.156.045.415.415,0,0,1-.237-.1,3.778,3.778,0,0,0-.342-.225,2.775,2.775,0,0,0-.5-.225,2.143,2.143,0,0,0-.7-.1,2.085,2.085,0,0,0-.69.105,1.467,1.467,0,0,0-.5.285,1.17,1.17,0,0,0-.3.423,1.343,1.343,0,0,0-.1.525.97.97,0,0,0,.177.6,1.525,1.525,0,0,0,.468.4,3.585,3.585,0,0,0,.66.291l.756.255q.387.132.756.3a2.659,2.659,0,0,1,.66.417,1.9,1.9,0,0,1,.468.618,2.057,2.057,0,0,1,.177.9,2.9,2.9,0,0,1-.192,1.059,2.441,2.441,0,0,1-.561.861,2.624,2.624,0,0,1-.906.576A3.332,3.332,0,0,1,105.99.1a3.728,3.728,0,0,1-1.521-.3,3.568,3.568,0,0,1-1.173-.819l.336-.552a.442.442,0,0,1,.117-.111.274.274,0,0,1,.153-.045.477.477,0,0,1,.288.135,4.8,4.8,0,0,0,.405.3,3.093,3.093,0,0,0,.588.3,2.321,2.321,0,0,0,.843.135,2.217,2.217,0,0,0,.738-.114,1.567,1.567,0,0,0,.549-.321,1.391,1.391,0,0,0,.345-.5,1.654,1.654,0,0,0,.12-.642,1.077,1.077,0,0,0-.177-.639,1.467,1.467,0,0,0-.465-.417,3.25,3.25,0,0,0-.657-.285l-.756-.24a7.623,7.623,0,0,1-.756-.285,2.457,2.457,0,0,1-.657-.42,1.93,1.93,0,0,1-.465-.645,2.3,2.3,0,0,1-.177-.957,2.277,2.277,0,0,1,.177-.882,2.273,2.273,0,0,1,.513-.756,2.486,2.486,0,0,1,.831-.528,3.044,3.044,0,0,1,1.137-.2,3.639,3.639,0,0,1,1.314.228,3.026,3.026,0,0,1,1.038.66ZM114.648,0h-.474a.566.566,0,0,1-.252-.048.265.265,0,0,1-.126-.2l-.12-.564q-.24.216-.468.387a2.678,2.678,0,0,1-.48.288,2.487,2.487,0,0,1-.537.177,3.08,3.08,0,0,1-.633.06A2.154,2.154,0,0,1,110.9,0a1.51,1.51,0,0,1-.537-.3A1.419,1.419,0,0,1,110-.8a1.762,1.762,0,0,1-.135-.719,1.345,1.345,0,0,1,.2-.7,1.742,1.742,0,0,1,.639-.593,4.154,4.154,0,0,1,1.155-.424A7.86,7.86,0,0,1,113.6-3.4v-.477a1.654,1.654,0,0,0-.3-1.078,1.1,1.1,0,0,0-.9-.365,1.9,1.9,0,0,0-.657.1,2.487,2.487,0,0,0-.462.222q-.195.123-.336.222a.485.485,0,0,1-.279.1.32.32,0,0,1-.189-.057.434.434,0,0,1-.129-.141l-.192-.342a3.471,3.471,0,0,1,1.086-.726,3.353,3.353,0,0,1,1.29-.24,2.3,2.3,0,0,1,.906.168,1.858,1.858,0,0,1,.666.468,1.982,1.982,0,0,1,.408.726,3.024,3.024,0,0,1,.138.936Zm-2.772-.654a2.18,2.18,0,0,0,.516-.057,2.037,2.037,0,0,0,.441-.162,2.337,2.337,0,0,0,.4-.255,3.431,3.431,0,0,0,.369-.342V-2.724a7.161,7.161,0,0,0-1.254.094,3.5,3.5,0,0,0-.84.244,1.171,1.171,0,0,0-.471.356.769.769,0,0,0-.147.459,1.017,1.017,0,0,0,.078.416.789.789,0,0,0,.21.287.827.827,0,0,0,.312.163A1.419,1.419,0,0,0,111.876-.654Zm3.432-5.424h.876a.329.329,0,0,1,.21.066.374.374,0,0,1,.12.156l1.542,3.912a2.967,2.967,0,0,1,.132.432q.048.216.09.426.048-.21.1-.426a3.6,3.6,0,0,1,.138-.432l1.56-3.912a.356.356,0,0,1,.117-.159.317.317,0,0,1,.2-.063h.834L118.752,0h-.966Zm9.162-.1a2.713,2.713,0,0,1,1.008.183,2.263,2.263,0,0,1,.8.528,2.407,2.407,0,0,1,.525.852,3.292,3.292,0,0,1,.189,1.155.7.7,0,0,1-.054.336.224.224,0,0,1-.2.084h-4.044a3.356,3.356,0,0,0,.156,1,2.049,2.049,0,0,0,.4.711,1.587,1.587,0,0,0,.6.426,2.06,2.06,0,0,0,.78.141,2.288,2.288,0,0,0,.693-.093,3.3,3.3,0,0,0,.5-.2,3.822,3.822,0,0,0,.351-.2.465.465,0,0,1,.243-.093.235.235,0,0,1,.2.1l.3.39a2.029,2.029,0,0,1-.474.417,2.951,2.951,0,0,1-.591.291,3.754,3.754,0,0,1-.651.171,3.976,3.976,0,0,1-.666.057,3.09,3.09,0,0,1-1.161-.213,2.548,2.548,0,0,1-.918-.624,2.863,2.863,0,0,1-.6-1.017,4.135,4.135,0,0,1-.216-1.392,3.542,3.542,0,0,1,.195-1.188,2.8,2.8,0,0,1,.561-.957,2.583,2.583,0,0,1,.894-.636A2.935,2.935,0,0,1,124.47-6.174Zm.024.786a1.64,1.64,0,0,0-1.218.447,2.1,2.1,0,0,0-.552,1.239h3.306a2.163,2.163,0,0,0-.1-.681,1.518,1.518,0,0,0-.3-.534,1.343,1.343,0,0,0-.483-.348A1.629,1.629,0,0,0,124.494-5.388Z" transform="translate(146 73)" fill="#fff"/>
  </g>
</svg>
